<?xml version="1.0" encoding="UTF-8"?>
<svg width="98px" height="61px" viewBox="0 0 98 61" version="1.1" xmlns="http://www.w3.org/2000/svg" xmlns:xlink="http://www.w3.org/1999/xlink">
    <!-- Generator: Sketch 41.2 (35397) - http://www.bohemiancoding.com/sketch -->
    <title>icon-shake</title>
    <desc>Created with Sketch.</desc>
    <defs></defs>
    <g id="index" stroke="none" stroke-width="1" fill="none" fill-rule="evenodd">
        <g id="index-page" transform="translate(-1138.000000, -1608.000000)" fill="#04B182">
            <g id="section-brief-introduction" transform="translate(-54.000000, 1521.000000)">
                <g id="icon-shake" transform="translate(1192.000000, 87.000000)">
                    <g id="Group">
                        <path d="M37.5684783,6.81566071 C32.9413043,6.80041071 25.0456522,6.77426786 18.5097826,6.75248214 L17.8076087,9.42776786 L34.4391304,9.48114286 L37.5684783,6.81566071 Z" id="Shape"></path>
                        <path d="M79.0847826,6.87339286 C79.0847826,6.87339286 71.6923913,7.30475 67.1956522,6.68385714 C62.698913,6.05969643 55.2630435,2.99226786 51.3858696,2.99226786 C48.9684783,2.99226786 45.8641304,4.46933929 43.1858696,6.107625 C43.1619565,6.12396429 43.1423913,6.14139286 43.1173913,6.15555357 C40.5065217,7.83632143 38.2293478,9.87764286 36.9913043,11.0453571 C35.7543478,12.21525 34.3565217,16.0375536 33.8880435,17.9154821 C33.2684783,20.4012321 30.2956522,24.7670893 30.2956522,24.7670893 C30.2956522,24.7670893 31.9206522,27.3181964 35.048913,26.85525 C40.3184783,26.069875 43.626087,21.4295179 44.4326087,19.8881786 C45.7086957,17.4503571 48.0054348,15.5517321 50.5054348,15.5517321 C52.0478261,15.5517321 56.3021739,16.7586607 56.9413043,17.1584286 C57.5836957,17.5581964 77.4923913,38.5323929 77.8663043,38.940875 C78.3543478,39.4724464 78.576087,40.3983393 78.576087,41.106375 C78.576087,43.4505179 76.3043478,45.7064286 73.7173913,44.8676786 C73.625,44.8360893 73.548913,44.8230179 73.4652174,44.7979643 L56.1043478,30.9215536 L57.023913,34.7503929 L69.8608696,45.8665536 C70.1554348,46.3240536 71.0163043,47.9263929 69.8217391,49.3446429 C68.7782609,50.5951429 67.1586957,50.4165 66.1804348,50.0080179 L55.1391304,41.6891429 L51.3532609,42.1106964 L62.6913043,51.1691964 C62.9565217,51.5504464 63.1217391,52.0057679 63.1217391,52.5035714 C63.1217391,53.8270536 62.0586957,54.8989107 60.7380435,54.8989107 C60.4347826,54.8989107 60.1108696,54.839 59.801087,54.7333393 L51.6304348,48.7204821 L47.6456522,49.1518393 L54.8304348,54.8488036 C54.9315217,55.1102321 54.9608696,55.449 54.9608696,55.7420179 C54.9608696,56.9228036 54.0076087,57.8759286 52.8282609,57.8759286 C52.1032609,57.8759286 51.8228261,57.4826964 51.0782609,56.9500357 L46.7173913,53.931625 C46.901087,52.8510536 46.5478261,51.7083929 45.6728261,50.9230179 C44.5847826,49.959 43.0380435,49.8609643 41.848913,50.5657321 L41.7902174,50.5254286 C42.7717391,48.72375 42.4184783,46.421 40.8228261,45.00275 C39.0576087,43.4309107 36.4043478,43.5049821 34.726087,45.1095 C35.4608696,43.5180536 35.1130435,41.5627857 33.7347826,40.3373393 C32.0521739,38.8395714 29.4706522,38.9909821 27.9771739,40.679375 L27.8184783,40.8601964 C27.8184783,40.8601964 17.2673913,31.9008214 15.876087,30.0838929 C14.4934783,28.2724107 13.6663043,24.5121964 13.6663043,24.5121964 L12.4956522,28.8007143 L13.4,31.0784107 C13.5206522,31.3834107 13.7,31.6688036 13.9271739,31.9062679 L17.95,36.2274643 C17.7423913,36.3832321 17.5391304,36.5488036 17.35,36.7318036 C15.2032609,38.7589643 14.7054348,41.7141964 16.2336957,43.3394107 C17.7565217,44.9668036 20.7347826,44.6432857 22.8815217,42.6204821 C23.2826087,42.2414107 23.6163043,41.8285714 23.901087,41.40375 L26.0282609,42.8721071 L24.0891304,45.0702857 C22.5913043,46.7575893 22.7456522,49.3402857 24.4282609,50.8424107 C25.9021739,52.155 28.073913,52.1996607 29.5913043,51.0471964 C28.5902174,52.8597679 28.9347826,55.1788571 30.5391304,56.6101786 C32.401087,58.2658929 35.2532609,58.094875 36.9065217,56.2311071 L37.3173913,55.7648929 C36.8641304,56.9946964 37.1684783,58.4281964 38.2076087,59.3540893 C39.2565217,60.2876071 40.7358696,60.4161429 41.9054348,59.7919821 C42.1565217,59.7233571 43.7336957,59.238625 47.0684783,57.4260536 L49.525,59.1264286 C49.6608696,59.2244643 49.776087,59.3116071 49.8782609,59.39875 C50.4630435,59.85625 51.3478261,60.5523036 52.8271739,60.5523036 C55.1141304,60.5523036 57.0282609,58.9358036 57.5130435,56.7866429 C57.5173913,56.7637679 57.5271739,56.737625 57.5326087,56.7060357 L57.7597826,56.6973214 C58.625,57.2485 59.6847826,57.5741964 60.7369565,57.5741964 C61.5445652,57.5741964 62.3086957,57.3759464 62.9858696,57.0339107 C64.3880435,56.3356786 65.4173913,54.9980357 65.7032609,53.4065893 C65.751087,53.1789286 65.775,52.9469107 65.7902174,52.7105357 C66.3891304,52.887 67.0282609,52.9893929 67.6663043,52.9893929 C68.3858696,52.9893929 69.0684783,52.8532321 69.6956522,52.6146786 C70.5336957,52.2911607 71.2728261,51.7748393 71.8673913,51.0700714 C72.6021739,50.1888393 72.9695652,49.2171964 73.0706522,48.251 C73.1,47.99175 73.1086957,47.7281429 73.1,47.4699821 C73.6652174,47.633375 74.2467391,47.71725 74.8206522,47.71725 L74.826087,47.71725 C75.5413043,47.71725 76.2380435,47.587625 76.9,47.3490714 C77.8478261,47.0048571 78.7173913,46.4275357 79.4478261,45.6388929 C80.5891304,44.3938393 81.2456522,42.7479286 81.2456522,41.1052857 C81.2456522,40.6053036 81.1630435,39.0269286 80.2597826,37.6816607 L86.5315217,34.2264464 L79.0847826,6.87339286 Z" id="Shape"></path>
                        <rect id="Rectangle-path" transform="translate(90.245886, 19.054582) rotate(-15.260647) translate(-90.245886, -19.054582) " x="86.8661296" y="2.23341324" width="6.75951333" height="33.6423383"></rect>
                        <polygon id="Shape" points="8.9076087 0.446607143 0.214130435 32.3724821 0.0684782609 32.9084107 6.59130435 34.6893929 6.76956522 34.0423571 15.4293478 2.22867857"></polygon>
                    </g>
                </g>
            </g>
        </g>
    </g>
</svg>