<?xml version="1.0" encoding="UTF-8"?>
<svg width="100px" height="54px" viewBox="0 0 100 54" version="1.1" xmlns="http://www.w3.org/2000/svg" xmlns:xlink="http://www.w3.org/1999/xlink">
    <!-- Generator: Sketch 41.2 (35397) - http://www.bohemiancoding.com/sketch -->
    <title>icon-love</title>
    <desc>Created with Sketch.</desc>
    <defs></defs>
    <g id="index" stroke="none" stroke-width="1" fill="none" fill-rule="evenodd">
        <g id="index-page" transform="translate(-201.000000, -1608.000000)" fill="#04B182">
            <g id="section-brief-introduction" transform="translate(-54.000000, 1521.000000)">
                <g id="icon-love" transform="translate(255.000000, 87.000000)">
                    <g id="Group">
                        <path d="M47.3948659,35.8866818 C44.8908049,38.4615 42.176122,40.5650455 39.9491951,42.0181364 C34.2858049,45.7146818 30.0844512,48.2072727 30.0844512,48.2072727 C30.0844512,48.2072727 25.885561,45.7146818 20.2221707,42.0181364 C14.3801829,38.2086818 5.17932927,29.9270455 5.24584146,20.3935909 C5.32220732,9.63654545 11.959878,4.45131818 18.7823049,4.45131818 C22.968878,4.45131818 27.2244268,6.40145455 30.0782927,10.2145909 L30.0906098,10.2145909 C32.9444756,6.40390909 37.2012561,4.45131818 41.3865976,4.45131818 C43.3302317,4.45131818 45.2541585,4.887 47.0204268,5.7375 C48.1412805,4.57772727 49.3840732,3.61431818 50.7081585,2.84727273 C47.8432073,1.026 44.5668659,0.144818182 41.3865976,0.144818182 C37.2936341,0.144818182 33.3078293,1.57581818 30.0844512,4.104 C26.8610732,1.57581818 22.8752683,0.144818182 18.7823049,0.144818182 C10.2502683,0.144818182 1.02231707,6.47140909 0.925012195,20.3629091 C0.888060976,25.6156364 2.98319512,30.8941364 7.1537561,36.0523636 C11.0028415,40.8141818 15.5108902,44.091 17.856061,45.6201818 C23.5305366,49.3240909 27.6986341,51.8007273 27.8747683,51.9050455 L30.0844512,53.217 L32.2953659,51.9050455 C32.4702683,51.8019545 36.6408293,49.3228636 42.3165366,45.6189545 C44.1111341,44.4493636 47.1731585,42.2513182 50.2376463,39.15 C49.4160976,38.3007273 48.5970122,37.3888636 47.8074878,36.4119545 C47.6646098,36.2376818 47.5315854,36.0621818 47.3948659,35.8866818 Z" id="Shape"></path>
                        <path d="M82.0403293,0.505636364 C77.9473659,0.505636364 73.9603293,1.93663636 70.7369512,4.46481818 C67.5148049,1.93663636 63.5277683,0.505636364 59.4348049,0.505636364 C56.4713171,0.505636364 53.4265366,1.27022727 50.7081585,2.8485 C55.5302927,5.91422727 59.1835366,11.6505 59.2438902,20.3641364 C59.2808415,25.6168636 57.1857073,30.8953636 53.0151463,36.0535909 C52.1135366,37.1704091 51.1749756,38.2013182 50.2351829,39.1512273 C53.4142195,42.4415455 56.6437561,44.7647727 58.5073293,45.9797727 C64.1818049,49.6824545 68.3511341,52.1590909 68.5260366,52.2646364 L70.7369512,53.5753636 L72.9478659,52.2646364 C73.1227683,52.1603182 77.2933293,49.6824545 82.9690366,45.9785455 C85.3129756,44.4493636 89.8210244,41.1725455 93.6701098,36.4119545 C97.839439,31.2549545 99.9358049,25.9752273 99.8988537,20.7225 C99.8027805,6.831 90.5723659,0.505636364 82.0403293,0.505636364 Z" id="Shape"></path>
                        <path d="M47.3948659,35.8866818 C51.4582683,31.7102727 54.9661707,26.2930909 54.9242927,20.3935909 C54.8700976,12.7010455 51.4558049,7.87295455 47.0204268,5.7375 C43.8118293,9.05727273 41.6243171,14.0019545 41.5775122,20.7225 C41.5430244,25.7985 43.5026707,30.8965909 47.3948659,35.8866818 Z" id="Shape"></path>
                    </g>
                </g>
            </g>
        </g>
    </g>
</svg>