<?xml version="1.0" encoding="UTF-8"?>
<svg width="66px" height="82px" viewBox="0 0 66 82" version="1.1" xmlns="http://www.w3.org/2000/svg" xmlns:xlink="http://www.w3.org/1999/xlink">
    <!-- Generator: Sketch 41.2 (35397) - http://www.bohemiancoding.com/sketch -->
    <title>icon-achiement</title>
    <desc>Created with Sketch.</desc>
    <defs></defs>
    <g id="index" stroke="none" stroke-width="1" fill="none" fill-rule="evenodd">
        <g id="index-page" transform="translate(-706.000000, -1597.000000)" fill="#04B182">
            <g id="section-brief-introduction" transform="translate(-54.000000, 1521.000000)">
                <g id="icon-achiement" transform="translate(760.000000, 76.000000)">
                    <path d="M33,38.25 C42.05,38.25 49.25,45.45 49.25,54.5 C49.25,63.55 42.05,70.75 33,70.75 C23.95,70.75 16.75,63.55 16.75,54.5 C16.75,45.45 23.95,38.25 33,38.25 Z M33,43.25 C26.75,43.25 21.75,48.25 21.75,54.5 C21.75,60.75 26.75,65.75 33,65.75 C39.25,65.75 44.25,60.75 44.25,54.5 C44.25,48.25 39.25,43.25 33,43.25 Z M33,50.15 C35.4,50.15 37.4,52.1 37.4,54.5 C37.4,56.9 35.4,58.9 33,58.9 C30.6,58.9 28.65,56.9 28.65,54.5 C28.65,52.1 30.6,50.15 33,50.15 Z M22.65,0.5 L33,23.15 C24.35,23.15 16.1203304,26.4881467 10.7203304,33.0381467 L0.5,12.3 L13.8,10.85 L22.65,0.5 Z M43.35,0.5 L52.2,10.85 L65.5,9.35 L56.6246524,33.6291081 C51.2246524,27.1791081 41.55,23.15 33,23.15 L43.35,0.5 Z M33,27 C48.15,27 60.5,39.25 60.5,54.5 C60.5,69.7 48.45,82 33,82 C17.55,82 5.5,69.7 5.5,54.5 C5.5,39.25 17.85,27 33,27 Z M33,32 C20.6,32 10.5,42.05 10.5,54.5 C10.5,66.9 20.35,77 33,77 C46,77 55.5,66.9 55.5,54.5 C55.5,42.05 45.4,32 33,32 Z" id="Shape" transform="translate(33.000000, 41.250000) scale(1, -1) translate(-33.000000, -41.250000) "></path>
                </g>
            </g>
        </g>
    </g>
</svg>