<?xml version="1.0" encoding="UTF-8"?>
<svg width="94px" height="38px" viewBox="0 0 94 38" version="1.1" xmlns="http://www.w3.org/2000/svg" xmlns:xlink="http://www.w3.org/1999/xlink">
    <!-- Generator: Sketch 41.2 (35397) - http://www.bohemiancoding.com/sketch -->
    <title>logo copy</title>
    <desc>Created with Sketch.</desc>
    <defs></defs>
    <g id="index" stroke="none" stroke-width="1" fill="none" fill-rule="evenodd">
        <g id="index-page" transform="translate(-115.000000, -25.000000)" fill="#FFFFFF">
            <g id="navibar" transform="translate(-28.000000, 0.000000)">
                <g id="logo-copy" transform="translate(143.000000, 25.000000)">
                    <g id="图层_1">
                        <polygon id="Shape" points="0.0284707891 29.7220851 0.0284707891 0.0270732123 5.1138618 0.0270732123 5.1138618 24.9640291 18.8613176 24.9640291 18.8613176 29.7220851"></polygon>
                        <path d="M82.7945812,6.78207612 C85.8686419,6.78207612 88.4971548,7.83009464 90.6814367,9.92613167 C92.8644017,12.0221687 93.9565426,14.8114038 93.9565426,18.295135 C93.9565426,21.7784336 92.8718641,24.6109394 90.7029459,26.7913545 C88.5335888,28.972635 86.0055985,30.0626262 83.1180973,30.0626262 C80.230596,30.0626262 77.6376392,28.8168601 75.3392268,26.32403 L75.3392268,37.9638723 L70.5123853,37.9638723 L70.5123853,7.12218453 L75.3392268,7.12218453 L75.3392268,11.0732403 C77.2351098,8.21217571 79.7200816,6.78207612 82.7945812,6.78207612 L82.7945812,6.78207612 Z M75.252751,18.4647565 C75.252751,20.6174783 75.913391,22.3803302 77.2351098,23.7537451 C78.5563896,25.1280254 80.1660684,25.8143001 82.0619513,25.8143001 C83.9582732,25.8143001 85.6100925,25.134516 87.0178481,23.7749478 C88.4251648,22.4153796 89.13014,20.6525276 89.13014,18.4859592 C89.13014,16.3193908 88.4405285,14.5210568 87.0613055,13.0905245 C85.6820825,11.6608576 84.0298243,10.9451588 82.1054087,10.9451588 C80.1801152,10.9451588 78.5563896,11.6608576 77.2351098,13.0905245 C75.913391,14.5206241 75.252751,16.3124675 75.252751,18.4647565 L75.252751,18.4647565 Z" id="Shape"></path>
                        <path d="M40.3288228,22.0627226 C40.0105743,22.6814949 39.6005825,23.2453133 39.0957746,23.7537451 C37.7310374,25.1280254 35.9993268,25.8143001 33.9028375,25.8143001 C31.8054704,25.8143001 30.0737598,25.1280254 28.7099005,23.7537451 C27.3447243,22.3803302 26.6625752,20.6036316 26.6625752,18.4223511 C26.6625752,16.2419361 27.3447243,14.4648048 28.7099005,13.0909572 C30.0737598,11.7175423 31.8054704,11.0304022 33.9028375,11.0304022 C35.9993268,11.0304022 37.7310374,11.7175423 39.0957746,13.0909572 C40.4600728,14.4652375 41.3090281,16.2419361 41.3090281,18.4223511 L41.3090281,18.4223511 C41.3090281,21.142353 41.9591329,23.5101305 43.5622272,25.5287129 C45.1653215,23.5101305 45.843081,21.142353 45.843081,18.4223511 C45.843081,15.1662243 44.8207353,12.4111731 42.5218839,10.1593612 C40.2234716,7.90798206 37.3504561,6.78207612 33.9028375,6.78207612 C30.455219,6.78207612 27.5817646,7.90798206 25.2833522,10.1593612 C22.9845009,12.4111731 21.8357336,15.1657915 21.8357336,18.4223511 C21.8357336,21.6793435 22.9840619,24.4339619 25.2833522,26.6853411 C27.5813256,28.9367202 30.45478,30.0626262 33.9028375,30.0626262 C37.3504561,30.0626262 40.2230326,28.9367202 42.5218839,26.6853411 C42.5767544,26.6316853 42.6276741,26.5762987 42.6812277,26.5222102 C41.5746009,25.180383 40.7892954,23.690137 40.3288228,22.0627226 L40.3288228,22.0627226 Z" id="Shape"></path>
                        <path d="M61.8406633,10.1589285 C59.5422509,7.90754935 56.6692354,6.78164342 53.2216169,6.78164342 C49.7739983,6.78164342 46.9005439,7.90754935 44.6021315,10.1589285 C44.5472611,10.2125843 44.4963413,10.2679709 44.4427878,10.3220594 C45.5494145,11.6634539 46.33472,13.1532671 46.7951927,14.7811142 C47.1134411,14.1627746 47.5234329,13.5985236 48.0286798,13.0900918 C49.3925391,11.7166769 51.1242497,11.0295368 53.2216169,11.0295368 C55.3181061,11.0295368 57.0498167,11.7166769 58.4145539,13.0900918 C59.7788522,14.4643721 60.4614402,16.2410707 60.4614402,18.4214857 C60.4614402,20.6027662 59.7788522,22.3794648 58.4145539,23.7528797 C57.0498167,25.1271599 55.3181061,25.8134347 53.2216169,25.8134347 C51.1242497,25.8134347 49.3925391,25.1271599 48.0286798,23.7528797 C46.6635036,22.3794648 45.8426421,20.6027662 45.8426421,18.4214857 L45.8426421,18.4214857 C45.8426421,15.7014839 45.1648826,13.3337063 43.5617882,11.315124 C41.9586939,13.334139 41.3085891,15.7023493 41.3085891,18.4214857 C41.3085891,21.678478 42.3032802,24.4330965 44.6021315,26.6844756 C46.9001049,28.9358548 49.7735593,30.0617607 53.2216169,30.0617607 C56.6692354,30.0617607 59.5418119,28.9358548 61.8406633,26.6844756 C64.1395146,24.4330965 65.2882818,21.6789107 65.2882818,18.4214857 C65.2882818,15.1657915 64.1390756,12.4107404 61.8406633,10.1589285 L61.8406633,10.1589285 Z" id="Shape"></path>
                    </g>
                </g>
            </g>
        </g>
    </g>
</svg>